<svg xmlns="http://www.w3.org/2000/svg" width="40" height="40" fill="none" viewBox="0 0 40 40">
                     <path fill="#04afbb" d="M20 9C13.922 9 9 14.047 9 20.278c0 4.99 3.149 9.206 7.521 10.7.55.1.756-.24.756-.535 0-.268-.013-1.156-.013-2.1-2.764.52-3.479-.692-3.699-1.326-.124-.324-.66-1.325-1.127-1.593-.386-.212-.936-.733-.014-.747.866-.014 1.485.817 1.691 1.156.99 1.706 2.571 1.226 3.204.93.096-.733.385-1.226.701-1.508-2.447-.282-5.005-1.255-5.005-5.569 0-1.226.426-2.241 1.127-3.03-.11-.283-.494-1.439.11-2.99 0 0 .922-.296 3.025 1.156a9.97 9.97 0 0 1 2.75-.38 10 10 0 0 1 2.75.38c2.104-1.466 3.025-1.156 3.025-1.156.605 1.551.22 2.707.11 2.99.702.789 1.128 1.79 1.128 3.03 0 4.328-2.571 5.287-5.019 5.569.399.352.743 1.029.743 2.086 0 1.509-.014 2.721-.014 3.102 0 .296.206.648.756.535a11.042 11.042 0 0 0 5.426-4.114A11.49 11.49 0 0 0 31 20.278C31 14.047 26.078 9 20 9Z"/>
                     <path stroke="#04afbb" stroke-width="2" d="M39 20c0 10.493-8.507 19-19 19S1 30.493 1 20 9.507 1 20 1s19 8.507 19 19Z"/>
                   </svg>