<svg xmlns="http://www.w3.org/2000/svg" width="40" height="40" fill="none" viewBox="0 0 40 40">
<path fill="#04afbb" d="M30 11.667v16.666C30 29.28 29.46 30 28.75 30H27.5V14.874L20 22.058l-7.5-7.184V30h-1.25c-.71 0-1.25-.72-1.25-1.667V11.667c0-.474.134-.89.358-1.185.224-.304.537-.482.892-.482h.417L20 18.056 28.333 10h.417c.355 0 .668.178.892.482.224.295.358.711.358 1.185Z"/>
<path stroke="#04afbb" stroke-width="2" d="M39 20c0 10.493-8.507 19-19 19S1 30.493 1 20 9.507 1 20 1s19 8.507 19 19Z"/>
</svg>