<svg xmlns="http://www.w3.org/2000/svg" width="40" height="40" fill="none" viewBox="0 0 40 40">
<path fill="#04afbb" d="M9 10.576C9 9.706 9.723 9 10.616 9h18.768C30.277 9 31 9.705 31 10.576v18.848c0 .87-.723 1.576-1.616 1.576H10.616C9.723 31 9 30.295 9 29.424V10.576Zm6.797 16.84v-9.934h-3.302v9.935h3.302Zm-1.65-11.29c1.15 0 1.867-.763 1.867-1.717-.02-.975-.715-1.716-1.845-1.716s-1.869.743-1.869 1.716c0 .954.716 1.716 1.825 1.716h.022Zm6.748 11.29V21.87c0-.297.022-.594.11-.806.238-.593.781-1.207 1.694-1.207 1.195 0 1.672.91 1.672 2.246v5.315h3.302V21.72c0-3.053-1.628-4.472-3.801-4.472-1.752 0-2.537.963-2.977 1.64v.035h-.022l.022-.034v-1.406h-3.3c.041.933 0 9.935 0 9.935h3.3Z"/>
<path stroke="#04afbb" stroke-width="2" d="M39 20c0 10.493-8.507 19-19 19S1 30.493 1 20 9.507 1 20 1s19 8.507 19 19Z"/></svg>