<svg xmlns="http://www.w3.org/2000/svg" width="40" height="40" fill="none" viewBox="0 0 40 40">
                     <path fill="#04afbb" d="M9 19.67C9 13.54 13.803 9 20 9s11 4.539 11 10.67c0 6.132-4.803 10.67-11 10.67-1.114 0-2.18-.146-3.184-.421a.878.878 0 0 0-.588.04l-2.183.966a.88.88 0 0 1-1.235-.778l-.06-1.957a.88.88 0 0 0-.296-.627C10.314 25.65 9 22.877 9 19.67Zm7.626-2.006-3.232 5.126c-.309.493.295 1.047.758.696l3.472-2.634a.66.66 0 0 1 .795-.003l2.57 1.928a1.652 1.652 0 0 0 2.385-.44l3.232-5.127c.31-.492-.295-1.046-.758-.695l-3.472 2.634a.66.66 0 0 1-.795.003l-2.57-1.93a1.65 1.65 0 0 0-2.385.442Z"/>
                     <path stroke="#04afbb" stroke-width="2" d="M39 20c0 10.493-8.507 19-19 19S1 30.493 1 20 9.507 1 20 1s19 8.507 19 19Z"/>
                   </svg>