<svg xmlns="http://www.w3.org/2000/svg" width="500" height="500" fill="none" viewBox="0 0 500 500">
               <g clip-path="url(#a)">
                  <path fill="#04afbb" d="M490.563 227.718 272.25 9.437a32.187 32.187 0 0 0-45.531 0L181.406 54.75l57.5 57.5A38.217 38.217 0 0 1 287.344 161l55.406 55.437a38.253 38.253 0 0 1 45.129 15.791 38.246 38.246 0 0 1-5.535 47.49 38.314 38.314 0 0 1-62.563-41.687l-51.656-51.688v136.032a38.31 38.31 0 0 1 5.998 64.981 38.314 38.314 0 0 1-56.559-49.119 38.313 38.313 0 0 1 19.061-16.987V183.968a38.322 38.322 0 0 1-20.87-20.791 38.303 38.303 0 0 1 .058-29.459l-56.657-56.687L9.469 226.718a32.18 32.18 0 0 0-9.433 22.766 32.186 32.186 0 0 0 9.433 22.766L227.78 490.562a32.182 32.182 0 0 0 35.087 6.982 32.204 32.204 0 0 0 10.445-6.982l217.281-217.281a32.22 32.22 0 0 0 0-45.531"/>
               </g>
               <defs>
                  <clipPath id="a">
                     <path fill="#04afbb" d="M0 0h500v500H0z"/>
                  </clipPath>
               </defs>
               </svg>