<svg xmlns="http://www.w3.org/2000/svg" width="500" height="488" fill="none" viewBox="0 0 500 488">
               <path fill="#04afbb" d="M250 0C111.875 0 0 111.875 0 250c0 110.625 71.563 204.063 170.937 237.188 12.5 2.187 17.188-5.313 17.188-11.875 0-5.938-.312-25.625-.312-46.563-62.813 11.563-79.063-15.313-84.063-29.375-2.813-7.188-15-29.375-25.625-35.313-8.75-4.687-21.25-16.25-.313-16.562 19.688-.313 33.751 18.125 38.438 25.625 22.5 37.812 58.438 27.188 72.813 20.625 2.187-16.25 8.749-27.188 15.937-33.438-55.625-6.25-113.75-27.812-113.75-123.437 0-27.188 9.688-49.688 25.625-67.188-2.5-6.25-11.25-31.875 2.5-66.25 0 0 20.938-6.562 68.75 25.626 20-5.625 41.25-8.438 62.5-8.438s42.5 2.813 62.5 8.438c47.813-32.5 68.75-25.626 68.75-25.626 13.75 34.375 5 60 2.5 66.25 15.938 17.5 25.625 39.688 25.625 67.188 0 95.937-58.437 117.187-114.062 123.437 9.062 7.813 16.875 22.813 16.875 46.251 0 33.437-.313 60.312-.313 68.75 0 6.562 4.688 14.375 17.188 11.875A250.379 250.379 0 0 0 500 250C500 111.875 388.125 0 250 0Z"/>
               </svg>