<svg xmlns="http://www.w3.org/2000/svg" width="500" height="500" fill="none" viewBox="0 0 500 500">
               <path fill="#04afbb" d="M0 31.25v437.5h500V31.25H0Zm272.098 341.211c0 42.578-28.571 62.012-70.201 62.012-37.611 0-59.375-16.993-70.535-37.598l38.281-20.215c7.366 11.426 14.062 21.094 30.245 21.094 15.402 0 25.224-5.274 25.224-25.879V232.129h46.986v140.332Zm111.161 62.012c-43.638 0-71.875-18.164-85.603-41.993l38.282-19.335c10.044 14.355 23.214 25 46.316 25 19.42 0 31.92-8.497 31.92-20.313 0-14.062-12.723-19.043-34.263-27.344l-11.719-4.394c-33.929-12.598-56.362-28.516-56.362-62.012 0-30.859 26.898-54.297 68.75-54.297 29.911 0 51.34 9.082 66.741 32.91l-36.607 20.508c-8.035-12.598-16.741-17.578-30.245-17.578-13.728 0-22.433 7.617-22.433 17.578 0 12.305 8.705 17.285 28.906 25l11.719 4.395c39.955 14.941 62.388 30.273 62.388 64.648 0 36.914-33.259 57.227-77.79 57.227Z"/>
               </svg>