<svg xmlns="http://www.w3.org/2000/svg" width="500" height="500" fill="none" viewBox="0 0 500 500">
               <g clip-path="url(#a)">
                  <path fill="#04afbb" d="M493.721 229.121c-3.203-3.447-26.192-31.533-38.584-46.67-6.592-8.047-11.797-14.404-13.985-17.041l-.175-.215-.196-.205c-5.097-5.693-12.344-12.217-23.222-12.217a38.959 38.959 0 0 0-5.284.43c-.361.049-.732.108-1.123.147-2.392.263-9.824 1.464-27.48 4.375-13.672 2.236-34.287 5.634-37.412 5.927l-.694.059-.673.127c-9.766 1.738-16.231 6.074-19.102 12.881-1.514 3.594-3.145 10.888 2.871 19.394 1.494 2.168 6.67 9.336 15.566 21.651 5.918 8.203 12.569 17.402 18.311 25.39l-108.73 25.401-106.68-174.756-.195-.332-.225-.323-.43-.634c-4.365-6.407-9.795-14.385-25.478-14.385-1.104 0-2.256 0-3.545.107-4.492.245-20.918 1.534-39.932 3.037-20.986 1.65-49.707 3.907-53.437 4.004h-.713l-.772.079c-8.926.869-15.4 4.492-19.238 10.742-6.396 10.439-1.387 22.158.254 26.006 3.29 7.783 33.262 70.966 59.697 126.738 17.578 37.051 35.723 75.361 37.207 78.76a34.04 34.04 0 0 0 12.82 15.522 34.045 34.045 0 0 0 19.348 5.562 45.524 45.524 0 0 0 9.629-1.075h.205l.196-.048c13.535-3.301 56.474-14.2 87.109-22.061 1.855 3.242 3.808 6.67 5.859 10.195 21.416 37.598 37.012 64.795 42.149 71.739 2.636 3.701 10.449 14.443 25.156 14.443 5.332 0 10.215-1.367 15.371-2.822l1.494-.42h.117c10.284-2.93 147.159-50.938 154.17-54.053l.215-.098c5.313-2.353 13.34-5.908 15.801-15.039 1.611-5.976.176-12.041-4.277-18.027l-.069-.088-.068-.088c-.83-1.074-3.906-5.088-8.076-10.644-8.916-11.787-23.321-30.83-35.977-47.403 16.963-4.394 37.891-9.873 42.363-11.279 11.202-3.35 14.59-10.439 15.625-14.385.772-3.076 1.778-10.937-5.761-18.408Zm-312.5 56.826c-17.393 4.073-29.512 6.914-37.002 8.692-6.514-13.028-19.278-38.721-31.739-63.799-29.043-58.516-44.043-88.643-51.933-104.395l7.959-.683a19627.09 19627.09 0 0 1 40.801-3.487c16.367 27.598 72.578 122.364 94.043 158.496l-22.129 5.176Zm173.984 65.078c-23.643 7.813-36.455 12.08-43.379 14.395-6.152-10.098-19.687-32.734-31.709-52.92l112.988-28.789c4.883 6.65 14.229 19.258 32.676 43.877-17.646 5.898-47.07 15.644-70.576 23.437Zm54.561-118.779-23.204-30.791c13.35-2.334 21.036-3.682 25.538-4.492l11.718 14.531 11.66 14.473c-8.007 1.943-17.324 4.219-25.712 6.279Z"/>
               </g>
               <defs>
                  <clipPath id="a">
                     <path fill="#04afbb" d="M0 0h500v500H0z"/>
                  </clipPath>
               </defs>
               </svg>