<svg xmlns="http://www.w3.org/2000/svg" width="500" height="500" fill="none" viewBox="0 0 500 500">
               <path fill="#04afbb" d="M341.771 114.604c-2.396 0-4.021.292-5.708.688v.27h.291c1.125 2.167 3.042 3.75 4.458 5.688 1.125 2.229 2.084 4.458 3.209 6.667l.292-.313c1.958-1.375 2.916-3.583 2.916-6.937-.833-.98-.958-1.959-1.666-2.917-.834-1.396-2.625-2.083-3.75-3.188l-.042.042ZM120.208 389.479h-19.312a1059.416 1059.416 0 0 0-5.625-91.875h-.167L65.73 389.479H51.042l-29.167-91.875h-.208a1518.554 1518.554 0 0 0-4.063 91.875H0c1.146-40.958 4-79.375 8.542-115.208H32.5l27.813 84.666h.166l28.063-84.666h22.812c5.042 41.979 8 80.416 8.917 115.208h-.063Zm83.688-85c-7.875 42.604-18.25 73.604-31.083 92.917-10.042 14.916-21.042 22.354-32.98 22.354-3.187 0-7.083-.958-11.791-2.875v-10.292c2.291.354 5 .542 8.041.542 5.584 0 10.063-1.563 13.48-4.625 4.104-3.75 6.145-7.958 6.145-12.604 0-3.229-1.604-9.792-4.791-19.667l-21.125-65.75h18.958l15.146 49.167c3.417 11.166 4.854 18.958 4.271 23.396 8.333-22.167 14.125-46.396 17.395-72.563h18.334Zm256.771 85h-54.792V274.271h18.438v101.041h36.354v14.167Zm-69.167 2.813-21.167-10.417c1.875-1.583 3.688-3.292 5.313-5.208 9.021-10.542 13.5-26.209 13.5-46.938 0-38.125-14.958-57.208-44.896-57.208-14.667 0-26.125 4.833-34.375 14.521-8.958 10.583-13.458 26.166-13.458 46.77 0 20.25 3.958 35.125 11.958 44.584 7.292 8.541 18.271 12.812 32.979 12.812 5.5 0 10.542-.687 15.104-2.041l27.605 16.083 7.5-12.958h-.063Zm-68.583-25.875c-4.688-7.5-7.021-19.584-7.021-36.167 0-29.021 8.833-43.542 26.458-43.542 9.229 0 16.042 3.479 20.354 10.417 4.667 7.542 7 19.5 7 35.896 0 29.25-8.833 43.916-26.458 43.916-9.271 0-16.042-3.479-20.375-10.416l.042-.104Zm-34.542-8.855c0 9.792-3.583 17.834-10.75 24.084s-16.729 9.375-28.833 9.375c-11.313 0-22.167-3.584-32.771-10.729l4.937-9.917c9.125 4.583 17.354 6.833 24.792 6.833 6.917 0 12.354-1.521 16.313-4.583a15.712 15.712 0 0 0 6.25-12.813c0-6.875-4.792-12.708-13.5-17.604-8.084-4.437-24.23-13.687-24.23-13.687-8.791-6.396-13.166-13.25-13.166-24.521 0-9.375 3.271-16.875 9.791-22.604 6.563-5.792 15-8.646 25.417-8.646 10.667 0 20.417 2.833 29.167 8.542l-4.438 9.916a56.783 56.783 0 0 0-22.167-4.791c-5.895 0-10.458 1.416-13.624 4.291a14.277 14.277 0 0 0-5.167 10.917c0 6.833 4.875 12.708 13.875 17.708 8.187 4.479 24.729 13.959 24.729 13.959 9.021 6.354 13.5 13.125 13.5 24.333l-.125-.063Zm195.458-121.916c-11.145-.292-19.791.833-27.02 3.916-2.084.834-5.417.834-5.709 3.48 1.146 1.104 1.313 2.916 2.292 4.458 1.667 2.792 4.541 6.521 7.208 8.479 2.917 2.292 5.833 4.5 8.896 6.458 5.417 3.334 11.563 5.313 16.875 8.667 3.021 1.958 6.104 4.438 9.167 6.521 1.521 1.042 2.5 2.917 4.458 3.583v-.416c-.958-1.25-1.25-3.063-2.187-4.459-1.396-1.396-2.792-2.646-4.167-4.021a67.148 67.148 0 0 0-14.479-14.062c-4.459-3.042-14.209-7.292-16.042-12.396l-.271-.292c3.042-.27 6.667-1.375 9.584-2.208 4.729-1.25 9.062-.979 13.958-2.208 2.208-.563 4.437-1.25 6.667-1.959v-1.25c-2.5-2.5-4.375-5.895-6.959-8.229a184.689 184.689 0 0 0-23-17.146c-4.375-2.791-9.916-4.583-14.521-6.958-1.666-.833-4.458-1.25-5.416-2.646-2.5-3.041-3.959-7.083-5.729-10.708a368.777 368.777 0 0 1-11.396-24.229c-2.5-5.459-4.021-10.896-7.084-15.896-14.375-23.688-29.937-38.042-53.875-52.083-5.145-2.917-11.312-4.167-17.833-5.709-3.479-.166-6.958-.416-10.417-.562-2.291-.98-4.5-3.625-6.458-4.896-7.917-5-28.417-15.834-34.25-1.5-3.75 9.041 5.563 17.958 8.792 22.542 2.396 3.187 5.416 6.833 7.083 10.416.979 2.417 1.25 4.896 2.229 7.417 2.209 6.125 4.313 12.958 7.229 18.687 1.521 2.917 3.188 5.98 5.146 8.605 1.125 1.52 3.042 2.229 3.479 4.729-1.958 2.833-2.083 6.958-3.208 10.416-5 15.771-3.042 35.271 4.042 46.875 2.229 3.459 7.541 11.125 14.646 8.188 6.25-2.5 4.875-10.417 6.666-17.396.417-1.667.146-2.771 1-3.896v.313c1.959 3.916 3.917 7.646 5.709 11.562 4.291 6.834 11.791 13.917 18.062 18.646 3.333 2.5 5.979 6.833 10.146 8.375v-.417h-.313c-.895-1.208-2.083-1.791-3.208-2.77a71.763 71.763 0 0 1-7.292-8.334 182.557 182.557 0 0 1-15.562-25.375c-2.292-4.375-4.208-9.083-6.042-13.396-.833-1.666-.833-4.166-2.229-5-2.083 3.042-5.146 5.688-6.667 9.438-2.645 6-2.916 13.375-3.916 21.042-.563.145-.292 0-.563.291-4.458-1.083-5.979-5.708-7.646-9.583-4.166-9.896-4.854-25.792-1.25-37.188.98-2.916 5.146-12.125 3.48-14.916-.875-2.646-3.625-4.167-5.146-6.313a51.505 51.505 0 0 1-5-8.896c-3.334-7.791-5-16.416-8.625-24.208-1.667-3.604-4.584-7.375-6.959-10.687-2.645-3.75-5.562-6.396-7.666-10.834-.688-1.52-1.667-4.041-.563-5.708.292-1.125.875-1.563 1.959-1.875 1.833-1.5 6.979.458 8.791 1.291 5.146 2.084 9.479 4.042 13.792 6.959 1.958 1.375 4.062 4.021 6.562 4.708H336c4.458.979 9.479.292 13.646 1.521 7.396 2.375 14.062 5.833 20.042 9.583a124.028 124.028 0 0 1 43.437 47.625c1.667 3.209 2.396 6.146 3.917 9.48 2.916 6.875 6.521 13.812 9.479 20.458 2.917 6.562 5.729 13.25 9.917 18.687 2.083 2.917 10.458 4.438 14.208 5.959 2.771 1.25 7.083 2.396 9.583 3.916 4.792 2.917 9.459 6.25 13.959 9.459 2.291 1.583 9.229 5.062 9.645 7.875Z"/>
               </svg>