<svg xmlns="http://www.w3.org/2000/svg" width="500" height="500" fill="none" viewBox="0 0 500 500">
               <path fill="#04afbb" d="M250 102.051c133.906 0 236.875 70.508 236.875 147.949 0 77.441-103.047 147.949-236.875 147.949-133.906 0-236.875-70.508-236.875-147.949 0-77.441 103.047-147.949 236.875-147.949Zm0-16.407C111.953 85.644 0 159.18 0 250s111.953 164.355 250 164.355S500 340.82 500 250 388.047 85.644 250 85.644Zm-79.531 151.172c-6.172 39.551-27.969 35.45-54.766 35.45l10.703-68.946c29.688 0 49.844-4.004 44.063 33.496ZM76.094 342.09h28.672l6.797-43.75c32.109 0 52.031 2.93 70.468-18.653 20.391-23.437 25.703-65.136 11.172-86.035-7.578-10.937-19.765-16.308-36.328-16.308h-55.234L76.094 342.09Zm145.078-208.594h28.516l-6.797 43.75c24.609 0 47.422-2.246 58.437 10.449 11.563 13.282 6.016 30.274-6.484 110.45h-28.907c12.032-77.54 14.297-83.985 9.922-89.844-4.218-5.664-13.828-4.492-37.031-4.492l-14.687 94.336h-28.516l25.547-164.649Zm173.359 103.32c-6.25 40.137-28.672 35.45-54.765 35.45l10.703-68.946c29.844 0 49.844-4.004 44.062 33.496ZM300.156 342.09h28.75l6.797-43.75c33.75 0 52.422 2.441 70.469-18.653 20.391-23.437 25.703-65.136 11.172-86.035-7.578-10.937-19.766-16.308-36.328-16.308h-55.235L300.156 342.09Z"/>
               </svg>