<svg xmlns="http://www.w3.org/2000/svg" width="500" height="500" fill="none" viewBox="0 0 500 500">
               <path fill="#04afbb" d="M401.035 176.485a339.604 339.604 0 0 0-15.088-4.766c.84-3.418 1.615-6.856 2.324-10.313 11.426-55.566 3.956-100.332-21.542-115.068-24.415-14.14-64.454.596-104.844 35.83a317.313 317.313 0 0 0-11.67 10.742 227.295 227.295 0 0 0-7.813-7.187c-42.334-37.676-84.765-53.545-110.234-38.76-24.414 14.17-31.67 56.25-21.387 108.916a328.64 328.64 0 0 0 3.467 15.557 313.714 313.714 0 0 0-17.354 5.468c-49.57 17.334-81.269 44.512-81.269 72.696 0 29.121 34.023 58.32 85.713 76.025a273.033 273.033 0 0 0 12.695 3.975 289.694 289.694 0 0 0-3.681 16.767c-9.766 51.758-2.149 92.842 22.216 106.924 25.166 14.541 67.383-.4 108.536-36.435a251.924 251.924 0 0 0 9.765-9.034 297.77 297.77 0 0 0 12.695 11.582c39.844 34.356 79.19 48.233 103.516 34.112 25.147-14.59 33.32-58.731 22.705-112.432a270.463 270.463 0 0 0-2.812-12.558 302.246 302.246 0 0 0 8.72-2.725c53.711-17.842 88.702-46.69 88.702-76.172-.02-28.32-32.735-55.674-83.36-73.144Zm-125.976-79.18c34.599-30.186 66.943-42.1 81.689-33.584 15.693 9.072 21.797 45.654 11.934 93.633a289.046 289.046 0 0 1-2.11 9.345 476.525 476.525 0 0 0-62.676-9.922 469.928 469.928 0 0 0-39.619-49.56 281.687 281.687 0 0 1 10.762-9.912h.02ZM154.033 273.682a589.734 589.734 0 0 0 13.291 24.306 572.84 572.84 0 0 0 14.717 24.131 424.671 424.671 0 0 1-43.203-6.963c4.141-13.398 9.238-27.314 15.195-41.474Zm0-47.197c-5.859-13.858-10.82-27.491-14.892-40.655 13.379-2.998 27.636-5.449 42.5-7.304a577.103 577.103 0 0 0-14.375 23.662 616.58 616.58 0 0 0-13.262 24.297h.029Zm10.645 23.603a570.225 570.225 0 0 1 19.941-37.871 566.213 566.213 0 0 1 22.725-36.26 566.971 566.971 0 0 1 42.685-1.611c14.444 0 28.828.556 42.764 1.621a608.81 608.81 0 0 1 22.588 36.133 678.191 678.191 0 0 1 20.205 37.695 612.638 612.638 0 0 1-20.156 38.027 666.862 666.862 0 0 1-22.461 36.368A615.594 615.594 0 0 1 250 325.703c-14.648 0-28.779-.459-42.441-1.347a567.737 567.737 0 0 1-22.911-36.416 566.162 566.162 0 0 1-20-37.852h.03Zm168.086 47.764a616.786 616.786 0 0 0 13.593-24.893 430.214 430.214 0 0 1 15.743 41.328 424.254 424.254 0 0 1-43.741 7.471 694.604 694.604 0 0 0 14.405-23.906Zm13.398-71.358a655.228 655.228 0 0 0-13.486-24.414 588.024 588.024 0 0 0-14.248-23.496c14.951 1.895 29.297 4.414 42.744 7.49a429.577 429.577 0 0 1-15.01 40.42Zm-95.937-104.931a429.389 429.389 0 0 1 27.588 33.379 582.502 582.502 0 0 0-55.411 0c9.112-12.051 18.438-23.233 27.823-33.379ZM142.246 64.317c15.684-9.102 50.361 3.906 86.914 36.396a248.98 248.98 0 0 1 7.031 6.514 479.84 479.84 0 0 0-39.902 49.521 487.404 487.404 0 0 0-62.559 9.766 302.202 302.202 0 0 1-3.222-14.473c-8.838-45.146-2.988-79.18 11.738-87.724Zm-22.861 245.947a233.823 233.823 0 0 1-11.572-3.623c-22.852-7.813-41.729-18.008-54.688-29.112-11.602-9.951-17.48-19.882-17.48-27.929 0-17.1 25.449-38.916 67.89-53.711a286.895 286.895 0 0 1 16.133-5.088 481.856 481.856 0 0 0 22.852 59.326 490.525 490.525 0 0 0-23.135 60.137Zm108.525 91.474c-18.193 15.938-36.416 27.237-52.48 32.93-14.434 5.108-25.928 5.254-32.871 1.24-14.786-8.545-20.938-41.543-12.549-85.8a303.968 303.968 0 0 1 3.418-15.625 469.717 469.717 0 0 0 63.174 9.17 489.468 489.468 0 0 0 40.234 49.804 214.836 214.836 0 0 1-8.926 8.281Zm22.871-22.675c-9.492-10.264-18.965-21.621-28.203-33.828 8.978.351 18.119.527 27.422.527 9.551 0 19.004-.205 28.32-.625a429.023 429.023 0 0 1-27.539 33.926Zm121.602 27.92c-2.793 15.078-8.408 25.136-15.352 29.16-14.775 8.574-46.367-2.569-80.429-31.953-3.907-3.36-7.813-6.963-11.788-10.743a473.109 473.109 0 0 0 39.288-50 466.452 466.452 0 0 0 63.476-9.814A247.556 247.556 0 0 1 370.117 345c4.697 23.731 5.371 45.195 2.266 61.983Zm16.992-100.235c-2.559.85-5.195 1.67-7.871 2.471a472.02 472.02 0 0 0-23.74-59.512 470.288 470.288 0 0 0 22.812-58.652 292.075 292.075 0 0 1 13.936 4.414c43.379 14.961 69.843 37.109 69.843 54.131 0 18.164-28.584 41.738-74.98 57.148Z"/>
               <path fill="#04afbb" d="M250 291.553a41.993 41.993 0 1 0-41.855-41.993 41.906 41.906 0 0 0 12.225 29.671A41.9 41.9 0 0 0 250 291.553Z"/>
               </svg>